<svg width="608" height="122" viewBox="0 0 608 122" fill="none" xmlns="http://www.w3.org/2000/svg">
<g filter="url(#filter0_d)">
<path d="M49.049 113.2C40.449 113.2 32.699 111.45 25.799 107.95C18.999 104.35 13.649 99.4 9.74902 93.1C5.94902 86.8 4.04902 79.65 4.04902 71.65C4.04902 63.65 5.94902 56.5 9.74902 50.2C13.649 43.9 18.999 39 25.799 35.5C32.699 31.9 40.449 30.1 49.049 30.1C57.549 30.1 64.949 31.9 71.249 35.5C77.649 39 82.299 44.05 85.199 50.65L67.049 60.4C62.849 53 56.799 49.3 48.899 49.3C42.799 49.3 37.749 51.3 33.749 55.3C29.749 59.3 27.749 64.75 27.749 71.65C27.749 78.55 29.749 84 33.749 88C37.749 92 42.799 94 48.899 94C56.899 94 62.949 90.3 67.049 82.9L85.199 92.8C82.299 99.2 77.649 104.2 71.249 107.8C64.949 111.4 57.549 113.2 49.049 113.2ZM131.222 30.1C143.722 30.1 153.322 33.1 160.022 39.1C166.722 45 170.072 53.95 170.072 65.95V112H148.172V101.95C143.772 109.45 135.572 113.2 123.572 113.2C117.372 113.2 111.972 112.15 107.372 110.05C102.872 107.95 99.4221 105.05 97.0221 101.35C94.6221 97.65 93.4221 93.45 93.4221 88.75C93.4221 81.25 96.2221 75.35 101.822 71.05C107.522 66.75 116.272 64.6 128.072 64.6H146.672C146.672 59.5 145.122 55.6 142.022 52.9C138.922 50.1 134.272 48.7 128.072 48.7C123.772 48.7 119.522 49.4 115.322 50.8C111.222 52.1 107.722 53.9 104.822 56.2L96.4221 39.85C100.822 36.75 106.072 34.35 112.172 32.65C118.372 30.95 124.722 30.1 131.222 30.1ZM129.422 97.45C133.422 97.45 136.972 96.55 140.072 94.75C143.172 92.85 145.372 90.1 146.672 86.5V78.25H130.622C121.022 78.25 116.222 81.4 116.222 87.7C116.222 90.7 117.372 93.1 119.672 94.9C122.072 96.6 125.322 97.45 129.422 97.45ZM218.4 113.2C211.7 113.2 205.15 112.4 198.75 110.8C192.35 109.1 187.25 107 183.45 104.5L191.25 87.7C194.85 90 199.2 91.9 204.3 93.4C209.4 94.8 214.4 95.5 219.3 95.5C229.2 95.5 234.15 93.05 234.15 88.15C234.15 85.85 232.8 84.2 230.1 83.2C227.4 82.2 223.25 81.35 217.65 80.65C211.05 79.65 205.6 78.5 201.3 77.2C197 75.9 193.25 73.6 190.05 70.3C186.95 67 185.4 62.3 185.4 56.2C185.4 51.1 186.85 46.6 189.75 42.7C192.75 38.7 197.05 35.6 202.65 33.4C208.35 31.2 215.05 30.1 222.75 30.1C228.45 30.1 234.1 30.75 239.7 32.05C245.4 33.25 250.1 34.95 253.8 37.15L246 53.8C238.9 49.8 231.15 47.8 222.75 47.8C217.75 47.8 214 48.5 211.5 49.9C209 51.3 207.75 53.1 207.75 55.3C207.75 57.8 209.1 59.55 211.8 60.55C214.5 61.55 218.8 62.5 224.7 63.4C231.3 64.5 236.7 65.7 240.9 67C245.1 68.2 248.75 70.45 251.85 73.75C254.95 77.05 256.5 81.65 256.5 87.55C256.5 92.55 255 97 252 100.9C249 104.8 244.6 107.85 238.8 110.05C233.1 112.15 226.3 113.2 218.4 113.2ZM319.988 30.1C329.988 30.1 338.038 33.1 344.138 39.1C350.338 45.1 353.438 54 353.438 65.8V112H330.038V69.4C330.038 63 328.638 58.25 325.838 55.15C323.038 51.95 318.988 50.35 313.688 50.35C307.788 50.35 303.088 52.2 299.588 55.9C296.088 59.5 294.338 64.9 294.338 72.1V112H270.938V0.699993H294.338V39.7C297.438 36.6 301.188 34.25 305.588 32.65C309.988 30.95 314.788 30.1 319.988 30.1ZM407.199 30.1C419.699 30.1 429.299 33.1 435.999 39.1C442.699 45 446.049 53.95 446.049 65.95V112H424.149V101.95C419.749 109.45 411.549 113.2 399.549 113.2C393.349 113.2 387.949 112.15 383.349 110.05C378.849 107.95 375.399 105.05 372.999 101.35C370.599 97.65 369.399 93.45 369.399 88.75C369.399 81.25 372.199 75.35 377.799 71.05C383.499 66.75 392.249 64.6 404.049 64.6H422.649C422.649 59.5 421.099 55.6 417.999 52.9C414.899 50.1 410.249 48.7 404.049 48.7C399.749 48.7 395.499 49.4 391.299 50.8C387.199 52.1 383.699 53.9 380.799 56.2L372.399 39.85C376.799 36.75 382.049 34.35 388.149 32.65C394.349 30.95 400.699 30.1 407.199 30.1ZM405.399 97.45C409.399 97.45 412.949 96.55 416.049 94.75C419.149 92.85 421.349 90.1 422.649 86.5V78.25H406.599C396.999 78.25 392.199 81.4 392.199 87.7C392.199 90.7 393.349 93.1 395.649 94.9C398.049 96.6 401.299 97.45 405.399 97.45ZM570.577 30.1C580.677 30.1 588.677 33.1 594.577 39.1C600.577 45 603.577 53.9 603.577 65.8V112H580.177V69.4C580.177 63 578.827 58.25 576.127 55.15C573.527 51.95 569.777 50.35 564.877 50.35C559.377 50.35 555.027 52.15 551.827 55.75C548.627 59.25 547.027 64.5 547.027 71.5V112H523.627V69.4C523.627 56.7 518.527 50.35 508.327 50.35C502.927 50.35 498.627 52.15 495.427 55.75C492.227 59.25 490.627 64.5 490.627 71.5V112H467.227V31.3H489.577V40.6C492.577 37.2 496.227 34.6 500.527 32.8C504.927 31 509.727 30.1 514.927 30.1C520.627 30.1 525.777 31.25 530.377 33.55C534.977 35.75 538.677 39 541.477 43.3C544.777 39.1 548.927 35.85 553.927 33.55C559.027 31.25 564.577 30.1 570.577 30.1Z" fill="white"/>
</g>
<defs>
<filter id="filter0_d" x="0.0490723" y="0.699951" width="607.528" height="120.5" filterUnits="userSpaceOnUse" color-interpolation-filters="sRGB">
<feFlood flood-opacity="0" result="BackgroundImageFix"/>
<feColorMatrix in="SourceAlpha" type="matrix" values="0 0 0 0 0 0 0 0 0 0 0 0 0 0 0 0 0 0 127 0" result="hardAlpha"/>
<feOffset dy="4"/>
<feGaussianBlur stdDeviation="2"/>
<feColorMatrix type="matrix" values="0 0 0 0 0 0 0 0 0 0 0 0 0 0 0 0 0 0 0.25 0"/>
<feBlend mode="normal" in2="BackgroundImageFix" result="effect1_dropShadow"/>
<feBlend mode="normal" in="SourceGraphic" in2="effect1_dropShadow" result="shape"/>
</filter>
</defs>
</svg>
